# xmcd
#
# Track frame offsets:
#	150
#	14975
#	31792
#	47560
#	65117
#	76877
#	90475
#	102072
#	117277
#	129405
#	144767
#	164847
#	180870
#	194420
#	209815
#	226862
#	242755
#	258257
#	270672
#	283342
#	308355
#	324247
#
# Disc length: 4429 seconds
#
# Revision: 1
# Processed by: cddbd v1.4PL0 Copyright (c) Steve Scherf et al.
# Submitted via: audiograbber 1.81.03
#
DISCID=2f114b16
DTITLE=jeff tweedy - outta print outta site
DYEAR=1900
DGENRE=
TTITLE0=We've Been Had (live)
TTITLE1=The TB Is Whipping Me
TTITLE2=Passenger Side (demo)
TTITLE3=I'm Not Willing...
TTITLE4=Who Were You Thinking Of
TTITLE5=I Must Be High (live)
TTITLE6=Burned
TTITLE7=Monday (live)
TTITLE8=Outta Site (Outta Mind)
TTITLE9=Thirteen
TTITLE10=Blasting Fonda
TTITLE11=No More Poetry
TTITLE12=Sugar, Baby (live)
TTITLE13=James Alley Blues (live)
TTITLE14=California Stars (live)
TTITLE15=At My Window Sad And Lonely (solo)
TTITLE16=Radio King (live)
TTITLE17=Love And Mercy (live)
TTITLE18=Tried And True
TTITLE19=Sunken Treasure (live)
TTITLE20=I'm Always In Love
TTITLE21=Student Loan (stereo)
EXTD=Deep Six Records DEEP SIX 7
EXTT0=
EXTT1=
EXTT2=
EXTT3=
EXTT4=
EXTT5=
EXTT6=
EXTT7=
EXTT8=
EXTT9=
EXTT10=
EXTT11=
EXTT12=
EXTT13=
EXTT14=
EXTT15=
EXTT16=
EXTT17=
EXTT18=
EXTT19=
EXTT20=
EXTT21=
PLAYORDER=
